<svg xmlns="http://www.w3.org/2000/svg" xmlns:xlink="http://www.w3.org/1999/xlink" width="2000" zoomAndPan="magnify" viewBox="0 0 1500 1499.999933" height="2000" preserveAspectRatio="xMidYMid meet" version="1.0"><defs><g/><clipPath id="f7abb4a30a"><path d="M 545 261.550781 L 855 261.550781 L 855 719 L 545 719 Z M 545 261.550781 " clip-rule="nonzero"/></clipPath><clipPath id="1a65a7fb99"><path d="M 267.699219 506 L 578 506 L 578 960 L 267.699219 960 Z M 267.699219 506 " clip-rule="nonzero"/></clipPath><clipPath id="b15d48dab5"><path d="M 566 597 L 1232.199219 597 L 1232.199219 1033.300781 L 566 1033.300781 Z M 566 597 " clip-rule="nonzero"/></clipPath></defs><g clip-path="url(#f7abb4a30a)"><path fill="#83ba41" d="M 605.230469 363.289062 C 663.484375 295.578125 766.144531 238.914062 854.550781 270.574219 C 735.402344 356.285156 798.292969 543.902344 704.144531 650.988281 C 678.777344 684.042969 642.59375 708.558594 602.597656 718.914062 C 613.21875 598.328125 643.277344 471.359375 709.585938 369.265625 C 606.472656 438.132812 601.4375 586.53125 583.777344 699.519531 C 529.636719 596.226562 529.660156 456.203125 605.230469 363.292969 Z M 605.230469 363.289062 " fill-opacity="1" fill-rule="nonzero"/></g><g clip-path="url(#1a65a7fb99)"><path fill="#83ba41" d="M 267.796875 513.851562 C 496.699219 455.914062 652.65625 749.519531 540.925781 939.261719 C 520.65625 827.671875 515.898438 688.453125 419.203125 614.472656 C 466.941406 698.84375 492.597656 792.269531 512.746094 886.820312 C 518.742188 910.707031 519.414062 935.394531 519.078125 959.910156 C 473.816406 953.367188 437.015625 920.890625 410.691406 884.769531 C 325.363281 776.496094 386.929688 596.980469 267.796875 513.847656 Z M 267.796875 513.851562 " fill-opacity="1" fill-rule="nonzero"/></g><g clip-path="url(#b15d48dab5)"><path fill="#83ba41" d="M 688.300781 686.429688 C 845.300781 514.234375 1130.175781 613.808594 1232.207031 799.28125 C 1070.289062 702.304688 965.375 955.460938 826.484375 1004.492188 C 749.191406 1046.601562 646.964844 1043.1875 576.105469 989.265625 C 678.445312 871.671875 815.941406 760.761719 969.492188 727.160156 C 823.84375 663.859375 663.191406 855.667969 566.523438 948.3125 C 578.996094 852.921875 622.324219 756.027344 688.300781 686.429688 " fill-opacity="1" fill-rule="nonzero"/></g><g fill="#fff9f0" fill-opacity="1"><g transform="translate(218.465624, 1225.034634)"><g><path d="M 49.875 2 C 41.625 2 34.269531 0.414062 27.8125 -2.75 C 21.351562 -5.914062 16.332031 -10.351562 12.75 -16.0625 C 9.164062 -21.769531 7.375 -28.289062 7.375 -35.625 L 7.375 -86 L 35.625 -86 L 35.625 -35.625 C 35.625 -30.625 36.832031 -26.875 39.25 -24.375 C 41.664062 -21.875 45.207031 -20.625 49.875 -20.625 C 54.539062 -20.625 58.082031 -21.894531 60.5 -24.4375 C 62.914062 -26.976562 64.125 -30.707031 64.125 -35.625 L 64.125 -86 L 92.375 -86 L 92.375 -35.625 C 92.375 -28.289062 90.582031 -21.769531 87 -16.0625 C 83.414062 -10.351562 78.394531 -5.914062 71.9375 -2.75 C 65.476562 0.414062 58.125 2 49.875 2 Z M 49.875 2 "/></g></g></g><g fill="#fff9f0" fill-opacity="1"><g transform="translate(318.20939, 1225.034634)"><g><path d="M 73.25 2 C 57.582031 2 48 -5.25 44.5 -19.75 L 41.375 -32.625 L 35.5 -32.625 L 35.5 0 L 8.125 0 L 8.125 -86 L 46 -86 C 53.164062 -86 59.476562 -84.9375 64.9375 -82.8125 C 70.394531 -80.6875 74.625 -77.707031 77.625 -73.875 C 80.625 -70.039062 82.125 -65.625 82.125 -60.625 C 82.125 -55.039062 80.769531 -50.351562 78.0625 -46.5625 C 75.351562 -42.769531 71.164062 -39.664062 65.5 -37.25 C 66.082031 -34.082031 66.75 -31.207031 67.5 -28.625 C 68.5 -25.457031 69.875 -23.25 71.625 -22 C 73.375 -20.75 75.914062 -20.125 79.25 -20.125 C 80.414062 -20.125 82.25 -20.289062 84.75 -20.625 L 84.75 -0.25 C 80.832031 1.25 77 2 73.25 2 Z M 40.25 -50.125 C 46.414062 -50.125 50.769531 -50.8125 53.3125 -52.1875 C 55.851562 -53.5625 57.125 -55.914062 57.125 -59.25 C 57.125 -62.082031 56.082031 -64.144531 54 -65.4375 C 51.914062 -66.726562 48.625 -67.375 44.125 -67.375 L 35.5 -67.375 L 35.5 -50.125 Z M 40.25 -50.125 "/></g></g></g><g fill="#fff9f0" fill-opacity="1"><g transform="translate(405.453931, 1225.034634)"><g><path d="M 40.625 1.5 C 35.457031 1.5 30.664062 1.414062 26.25 1.25 C 21.832031 1.082031 15.789062 0.707031 8.125 0.125 L 8.125 -86 L 51.125 -86 C 57.207031 -86 62.6875 -85.144531 67.5625 -83.4375 C 72.4375 -81.726562 76.25 -79.289062 79 -76.125 C 81.75 -72.957031 83.125 -69.289062 83.125 -65.125 C 83.125 -59.957031 82 -55.894531 79.75 -52.9375 C 77.5 -49.976562 74.082031 -47.914062 69.5 -46.75 C 81.164062 -44.914062 87 -38.039062 87 -26.125 C 87 -17.875 83.226562 -11.207031 75.6875 -6.125 C 68.144531 -1.039062 56.457031 1.5 40.625 1.5 Z M 45.875 -52 C 49.125 -52 51.8125 -52.789062 53.9375 -54.375 C 56.0625 -55.957031 57.125 -58 57.125 -60.5 C 57.125 -66.414062 53.457031 -69.375 46.125 -69.375 L 36 -69.375 L 36 -52 Z M 45.375 -18.125 C 49.957031 -18.125 53.476562 -18.976562 55.9375 -20.6875 C 58.394531 -22.394531 59.625 -24.789062 59.625 -27.875 C 59.625 -31.207031 58.5 -33.769531 56.25 -35.5625 C 54 -37.351562 50.789062 -38.25 46.625 -38.25 L 35.875 -38.25 L 35.875 -18.5 C 39.625 -18.25 42.789062 -18.125 45.375 -18.125 Z M 45.375 -18.125 "/></g></g></g><g fill="#fff9f0" fill-opacity="1"><g transform="translate(495.573296, 1225.034634)"><g><path d="M 24.375 -86 L 62.375 -86 L 87.25 0 L 57.875 0 L 54.625 -16.5 L 32.375 -16.5 L 28.75 0 L 0.625 0 Z M 51.625 -31.875 L 43.5 -69.5 L 35 -31.875 Z M 51.625 -31.875 "/></g></g></g><g fill="#fff9f0" fill-opacity="1"><g transform="translate(582.942841, 1225.034634)"><g><path d="M 8.125 -86 L 33.25 -86 L 67.5 -39.625 L 67.5 -86 L 89.875 -86 L 89.875 0 L 64.875 0 L 30.375 -44.75 L 30.375 0 L 8.125 0 Z M 8.125 -86 "/></g></g></g><g fill="#fff9f0" fill-opacity="1"><g transform="translate(680.936714, 1225.034634)"><g/></g></g><g fill="#fff9f0" fill-opacity="1"><g transform="translate(704.310217, 1225.034634)"><g><path d="M 8.125 -86 L 36.25 -86 L 36.25 -51.75 L 62.875 -51.75 L 62.875 -86 L 91.125 -86 L 91.125 0 L 62.875 0 L 62.875 -33.75 L 36.25 -33.75 L 36.25 0 L 8.125 0 Z M 8.125 -86 "/></g></g></g><g fill="#fff9f0" fill-opacity="1"><g transform="translate(803.554013, 1225.034634)"><g><path d="M 24.375 -86 L 62.375 -86 L 87.25 0 L 57.875 0 L 54.625 -16.5 L 32.375 -16.5 L 28.75 0 L 0.625 0 Z M 51.625 -31.875 L 43.5 -69.5 L 35 -31.875 Z M 51.625 -31.875 "/></g></g></g><g fill="#fff9f0" fill-opacity="1"><g transform="translate(890.923558, 1225.034634)"><g><path d="M 73.25 2 C 57.582031 2 48 -5.25 44.5 -19.75 L 41.375 -32.625 L 35.5 -32.625 L 35.5 0 L 8.125 0 L 8.125 -86 L 46 -86 C 53.164062 -86 59.476562 -84.9375 64.9375 -82.8125 C 70.394531 -80.6875 74.625 -77.707031 77.625 -73.875 C 80.625 -70.039062 82.125 -65.625 82.125 -60.625 C 82.125 -55.039062 80.769531 -50.351562 78.0625 -46.5625 C 75.351562 -42.769531 71.164062 -39.664062 65.5 -37.25 C 66.082031 -34.082031 66.75 -31.207031 67.5 -28.625 C 68.5 -25.457031 69.875 -23.25 71.625 -22 C 73.375 -20.75 75.914062 -20.125 79.25 -20.125 C 80.414062 -20.125 82.25 -20.289062 84.75 -20.625 L 84.75 -0.25 C 80.832031 1.25 77 2 73.25 2 Z M 40.25 -50.125 C 46.414062 -50.125 50.769531 -50.8125 53.3125 -52.1875 C 55.851562 -53.5625 57.125 -55.914062 57.125 -59.25 C 57.125 -62.082031 56.082031 -64.144531 54 -65.4375 C 51.914062 -66.726562 48.625 -67.375 44.125 -67.375 L 35.5 -67.375 L 35.5 -50.125 Z M 40.25 -50.125 "/></g></g></g><g fill="#fff9f0" fill-opacity="1"><g transform="translate(977.043088, 1225.034634)"><g><path d="M 0.25 -86 L 28.5 -86 L 41.75 -32.375 L 55 -86 L 84.5 -86 L 57.625 0 L 25.75 0 Z M 0.25 -86 "/></g></g></g><g fill="#fff9f0" fill-opacity="1"><g transform="translate(1061.037817, 1225.034634)"><g><path d="M 8.125 -86 L 68.5 -86 L 68.5 -67 L 38.5 -67 L 38.5 -51.375 L 65.875 -51.375 L 65.875 -35.625 L 38.5 -35.625 L 38.5 -19 L 68.5 -19 L 68.5 0 L 8.125 0 Z M 8.125 -86 "/></g></g></g><g fill="#fff9f0" fill-opacity="1"><g transform="translate(1135.408202, 1225.034634)"><g><path d="M 34.75 2 C 23 2 13.082031 -0.164062 5 -4.5 L 11.25 -23.875 C 19.832031 -20.789062 27.5 -19.25 34.25 -19.25 C 37.914062 -19.25 40.601562 -19.6875 42.3125 -20.5625 C 44.019531 -21.4375 44.875 -22.75 44.875 -24.5 C 44.875 -25.664062 44.414062 -26.6875 43.5 -27.5625 C 42.582031 -28.4375 40.75 -29.414062 38 -30.5 C 35.25 -31.582031 31.125 -32.914062 25.625 -34.5 C 18.875 -36.5 13.625 -39.769531 9.875 -44.3125 C 6.125 -48.851562 4.25 -54.082031 4.25 -60 C 4.25 -69.164062 7.269531 -76.101562 13.3125 -80.8125 C 19.351562 -85.519531 27.5 -87.875 37.75 -87.875 C 43.082031 -87.875 48.332031 -87.3125 53.5 -86.1875 C 58.664062 -85.0625 63.25 -83.414062 67.25 -81.25 L 60.5 -62.375 C 55.832031 -63.957031 51.769531 -65.101562 48.3125 -65.8125 C 44.851562 -66.519531 41.5 -66.875 38.25 -66.875 C 32.75 -66.875 30 -65.375 30 -62.375 C 30 -60.875 30.894531 -59.601562 32.6875 -58.5625 C 34.476562 -57.519531 38.164062 -56.207031 43.75 -54.625 C 52.5 -52.289062 59.125 -48.726562 63.625 -43.9375 C 68.125 -39.144531 70.375 -33.414062 70.375 -26.75 C 70.375 -17.5 67.375 -10.394531 61.375 -5.4375 C 55.375 -0.476562 46.5 2 34.75 2 Z M 34.75 2 "/></g></g></g><g fill="#fff9f0" fill-opacity="1"><g transform="translate(1209.403587, 1225.034634)"><g><path d="M 21.5 -67 L 3.625 -67 L 3.625 -86 L 68.5 -86 L 68.5 -67 L 50.625 -67 L 50.625 0 L 21.5 0 Z M 21.5 -67 "/></g></g></g></svg>